<?xml version="1.0"?>
<svg xmlns:rdf="http://www.w3.org/1999/02/22-rdf-syntax-ns#" xmlns="http://www.w3.org/2000/svg" xmlns:cc="http://creativecommons.org/ns#" xmlns:xlink="http://www.w3.org/1999/xlink" xmlns:dc="http://purl.org/dc/elements/1.1/" xmlns:svg="http://www.w3.org/2000/svg" id="svg3109" viewBox="0 0 317 481" version="1.0">
  <defs id="defs3112">
    <radialGradient id="radialGradient4068" gradientUnits="userSpaceOnUse" cy="260.52" cx="198.21" gradientTransform="matrix(.97595 .21797 -.40904 1.8314 111.33 -245.78)" r="118.04">
      <stop id="stop4064" stop-color="#917c6f" offset="0"/>
      <stop id="stop4066" stop-color="#917c6f" stop-opacity="0" offset="1"/>
    </radialGradient>
    <radialGradient id="radialGradient4112" gradientUnits="userSpaceOnUse" cy="166.98" cx="142.46" gradientTransform="matrix(1 0 0 .51612 -262.08 89.634)" r="73.809">
      <stop id="stop4108" stop-color="#917c6f" offset="0"/>
      <stop id="stop4110" stop-color="#917c6f" stop-opacity="0" offset="1"/>
    </radialGradient>
  </defs>
  <g id="g4410">
    <g id="g4353">
      <path id="path3284" stroke="url(#radialGradient4068)" fill="#f95" d="m232.39 18.278c0.7 0.014 1.45 0.287 2.5 0.719 1.68 0.696 3.69 2.197 4.5 3.344 1.68 2.405 1.91 8.884 0.5 14.937-0.54 2.306-2.14 10.488-3.54 18.188-1.39 7.7-3.73 20.004-5.18 27.344l-2.63 13.343 3.06 2.407c3.96 3.09 9.59 11.64 11.6 17.56 4.26 12.58 3.49 65.98-1.22 85.35-4.92 20.22-5.84 26.34-10.16 66-0.6 5.5-1.93 13.6-2.97 18-1.03 4.4-2.39 12.05-3 17-0.6 4.95-2.17 13.18-3.5 18.28-1.32 5.1-2.67 12.07-3 15.5-0.32 3.42-0.99 7.79-1.5 9.72-0.5 1.92-2.09 9.8-3.5 17.5-1.4 7.7-3.44 17.88-4.53 22.62-1.08 4.74-1.97 10.65-1.97 13.13 0 12.07-7.33 39.39-13.09 48.75-3.67 5.96-12.72 11.82-26 16.81-17.09 6.42-33.11 9.01-44.41 7.19-2.75-0.45-11.75-0.86-20-0.91-16.839-0.11-53.4-2.59-58.027-3.94-1.663-0.48-6.593-2.54-10.968-4.56-13.453-6.22-15.741-9.31-18.969-25.78-1.327-6.77-3.11-13.99-3.969-16.03-1.971-4.7-1.998-15.44-0.094-31.28 1.877-15.62 2.9-20.64 6.969-34.5 4.191-14.28 7.159-26.27 10.094-40.5 1.247-6.05 3.186-15.28 4.312-20.5 1.126-5.23 3.673-17.73 5.657-27.82 1.983-10.08 4.105-19.53 4.687-21 3.353-8.44 8.148-31.23 10.313-48.9 0.919-7.51 2.342-14.34 3.437-16.57 1.025-2.08 1.648-4.56 1.406-5.5-0.688-2.67 4.225-22.06 10.25-40.56 3.075-9.43 5.209-17.7 4.875-18.75-0.394-1.24 0.295-2.73 2-4.44 1.42-1.42 3.296-3.7 4.188-5.06 2.309-3.52 9.303-7.336 16.562-9.029 7.207-1.681 76.017-2.487 90.817-1.063l8.53 0.844 4.62-12.844c2.55-7.051 5.85-17.312 7.35-22.812 7.37-27.184 10.63-33.855 19.5-40 2.25-1.56 3.32-2.211 4.5-2.188z"/>
      <path id="path3266" stroke="#917c6f" fill="#d45500" d="m237.78 113.39c-0.04 0-0.06 0.01-0.1 0.03-0.4 0.25-1.31 3.74-2 7.75-0.68 4.02-1.85 9.76-2.59 12.78-2.96 12.03-5.5 27.27-7.06 42.5-1.63 15.87-3.22 24.71-7.94 44-1.35 5.5-2.9 12.93-3.47 16.5-0.99 6.31-2.15 11.88-7.37 36-6.3 29.09-8 36.2-13.19 54.6-3.05 10.8-6.16 22.41-6.91 25.78-0.74 3.37-2.27 9.72-3.4 14.12s-2.73 13.85-3.57 21c-0.83 7.15-2.15 15.03-2.93 17.5-0.79 2.48-2.01 7.2-2.72 10.5-3.47 16.13-8.78 21.16-27.47 26.07-7.46 1.95-11.22 2.47-14.97 2-5.56-0.7-44.157-2.57-83.999-4.03-7.707-0.29-16.672-1.19-19.906-2.04-3.235-0.84-6.076-1.36-6.313-1.12s0.341 1.93 1.281 3.75c0.941 1.82 1.719 5.03 1.719 7.12 0 4.93 1.244 5.6 3.219 1.79 2.186-4.23 4.877-4.09 4.281 0.21-0.247 1.79-0.649 3.87-0.875 4.63-0.225 0.76 0.085 1.56 0.688 1.78s1.526-1.02 2.031-2.78 1.548-3.43 2.312-3.69c1.109-0.37 1.253 0.46 0.75 4.13-0.395 2.88-0.214 4.86 0.469 5.28 1.442 0.89 2.825-1.44 2.844-4.78 0.015-2.66 1.572-4.59 2.75-3.41 0.332 0.33 0.499 3.12 0.375 6.19-0.198 4.88 0.002 5.55 1.562 5.25 0.982-0.19 2.165-1.7 2.657-3.35 1.961-6.56 2.711-7.85 3.875-6.68 0.826 0.82 0.83 2.15-0.032 5.03-1.533 5.12-1.491 7.15 0.188 7.15 0.801 0 1.97-2.15 2.812-5.18 1.779-6.4 4.457-8.1 3.438-2.19-1.327 7.69-1.272 7.87 1.5 8.19 2.349 0.27 2.724-0.17 3.844-4.5 1.87-7.23 1.899-7.32 3.093-7.32 0.774 0 0.898 2.01 0.407 6.6-0.698 6.51-0.673 6.58 1.656 6.25 1.939-0.28 2.535-1.25 3.469-5.47 1.399-6.32 2.297-7.89 3.656-6.53 0.675 0.67 0.591 2.65-0.219 6.03-1.173 4.89-0.852 7.12 1 7.12 0.821 0 1.667-2.52 3.406-10.25 0.361-1.6 1.284-2.75 2.219-2.75 1.287 0 1.459 0.65 0.906 3.25-2.101 9.91-2.08 9.96 1 9.6 2.596-0.3 2.94-0.88 4.219-6.66 0.867-3.92 1.837-6.15 2.563-5.9 1.302 0.44 1.399 4.77 0.218 8.93-0.66 2.33-0.383 2.91 1.813 3.91 3.589 1.64 5.217 0.03 7.254-7.22 0.98-3.52 2.18-5.91 3-5.91 1.77 0 1.73 2.73-0.13 8-1.76 4.99-1.35 6 2.38 6 2.46 0 3.05-0.67 5.21-6.25 1.34-3.43 2.86-6.02 3.41-5.75 1.06 0.53 1.06 0.99-0.06 7.85-0.71 4.32-0.7 4.33 2.19 4 2.58-0.3 3.12-1.03 5.06-6.85 1.29-3.87 2.81-6.62 3.75-6.81 2-0.41 1.98 0.84-0.13 7.53-2.12 6.75-1.43 7.4 7.69 7.03 5.97-0.23 6.48-0.4 6.22-2.34-0.34-2.51 3.57-13.41 4.81-13.41 1.89 0 1.87 2-0.03 7.54-1.09 3.17-2 6.16-2 6.62 0 1.31 6.43 1 8.34-0.41 1.03-0.75 2.16-3.84 2.85-7.75 1.39-7.88 2.38-9.25 3.87-5.4 0.83 2.12 0.83 3.73 0.03 5.97-1.54 4.35-1.37 5.43 0.91 5.43 1.25 0 2-0.66 2-1.78 0-2.81 4.43-13.52 5.78-13.97 1.65-0.55 1.53 1.57-0.44 7.66-0.91 2.82-1.37 5.41-1.03 5.75 0.35 0.34 1.96 0.07 3.57-0.59 2.69-1.12 3.01-1.8 4.12-8.97 1.4-8.97 2.47-11.42 4-9.1 0.55 0.83 0.81 2 0.59 2.6-1.15 3.16-1.73 12.4-0.78 12.4 2.12 0 13.76-8.73 15.94-11.96 2.41-3.57 2.88-8.25 1.25-12.54-1.39-3.66-0.34-4.93 2.56-3.03 2.26 1.48 2.43 1.42 2.94-0.72 0.31-1.27-0.55-4.87-1.94-8.25-1.47-3.58-2.1-6.36-1.56-6.9 1.25-1.25 3.67 0.92 4.44 4 0.34 1.37 1.06 2.23 1.59 1.9 1.82-1.12 0.98-7.95-1.53-12.34-1.37-2.39-2.5-4.76-2.5-5.25 0-1.7 2.93-0.9 4 1.09 0.59 1.1 1.48 2 1.97 2 1.85 0 1.62-3.7-0.63-9.84-2.5-6.84-2.33-8.75 0.66-7.16 2.7 1.45 2.76 1.38 3.47-2.84 0.5-2.94 0.06-5.19-1.91-9.62-1.4-3.19-2.56-6.18-2.56-6.66 0-1.86 2.86-0.76 4.5 1.75 1.36 2.07 1.91 2.34 2.59 1.25 1.48-2.32 1.03-5.56-1.59-11.47-1.37-3.11-2.5-6.05-2.5-6.53 0-1.93 3.12-0.72 4.19 1.62 0.62 1.38 1.57 2.5 2.09 2.5 1.3 0 0.39-5.52-1.84-11.21-2.22-5.68-1.21-7.31 2-3.29l2.31 2.94 0.69-3.06c0.6-2.74-0.23-6.3-2.91-12.63-0.83-1.97 1.86-2.55 3.03-0.65 0.48 0.77 1 0.79 1.75 0.03 0.76-0.76-0.01-2.65-2.62-6.44-2.03-2.94-3.69-5.85-3.69-6.5 0-2.15 1.81-1.22 4.88 2.5l3.03 3.66 1.06-2.72c1.56-4.1 1.21-8.6-1-13.47-1.09-2.4-1.97-4.76-1.97-5.25 0-1.64 2.16-0.93 4 1.34l1.84 2.25 0.69-2.78c0.47-1.85 0.05-4.56-1.25-8-2.32-6.12-2.03-8.71 0.72-6.22 2.95 2.67 3.18 0.1 0.5-5.65-2.61-5.61-3.17-8.85-1.53-8.85 0.54 0 1.7 1.37 2.56 3.04 1.66 3.2 3.47 3.15 3.47-0.1 0-1.06-0.94-4.66-2.09-8-2.27-6.54-2-8.22 0.9-5.59 1.01 0.91 2.17 1.65 2.53 1.65 1.64 0 0.43-6.24-1.84-9.59-2.81-4.14-3.41-8.69-1.03-7.78 0.8 0.31 1.73 1.42 2.06 2.47 0.9 2.84 2.14 2.31 2.85-1.22 1.05-5.27 0.7-8.24-1.38-11.66-1.1-1.8-2-3.93-2-4.75 0-1.75 2.59-1.95 3.63-0.28 0.47 0.77 0.98 0.39 1.53-1.09 0.61-1.66 0.18-3.36-1.66-6.5-2.59-4.42-3.21-7.6-1.5-7.6 0.55 0 1.56 0.9 2.25 2s1.53 2 1.88 2c1.49 0 1.71-6.24 0.34-10.12-1.05-2.97-1.19-4.53-0.44-5.28s1.33-0.63 1.97 0.4c0.5 0.81 1.19 1.16 1.53 0.82s-0.57-2.93-2-5.75c-2.44-4.83-2.6-7.07-0.5-7.07 0.5 0 1.58 1.24 2.38 2.75l1.43 2.75 1.16-2.96c0.83-2.16 0.83-4.13 0.06-7.19-1.48-5.9-1.34-7.03 0.94-7.63 2.5-0.65 2.72-5.43 0.44-9.84-1.61-3.11-1.26-6.5 0.56-5.38 2.04 1.27 2.08-2.39 0.06-6.34-3.05-5.98-2.58-10.27 0.75-6.94 1.82 1.82 1.5-6.22-0.34-8.65-1.67-2.21-1.98-6.57-0.47-6.57s1.22-3.27-0.62-6.96c-1.52-3.05-1.52-3.37 0-4.22 0.99-0.56 1.62-2.2 1.62-4.19 0-3.78-2.69-12.25-3.81-12.19z"/>
      <path id="path3278" stroke="#917c6f" fill="#ff0" d="m233.4 22.966c-2.98 0-7.88 5.246-6.35 6.781 0.88 0.874 0.85 1.521-0.12 2.688-1.01 1.209-1.01 1.857-0.07 3 1.6 1.925 0.93 2.777-3.9 5.093-2.23 1.067-4.03 2.287-4.03 2.719-0.01 0.432 0.84 0.319 1.9-0.25 2.87-1.534 6.07-1.268 6.07 0.5 0 0.842-0.69 1.8-1.54 2.125-0.84 0.325-1.41 1.402-1.25 2.375 0.17 0.973-0.53 2.677-1.53 3.781-1.18 1.306-1.44 2.229-0.75 2.657 1.59 0.979 1.3 3.531-0.4 3.531-1.07 0-1.33 0.766-0.97 2.75 0.44 2.414-0.07 3.081-4.16 5.531-2.56 1.535-4.39 3.079-4.06 3.406 0.33 0.328 1.72-0.131 3.09-1.031 1.38-0.899 3.19-1.656 4.03-1.656 2.37 0 1.82 2.604-0.93 4.406-1.36 0.889-2.22 2.202-1.94 2.938 0.28 0.735-0.21 1.914-1.06 2.625-1.4 1.163-1.37 1.427 0.18 2.562 1.46 1.066 1.51 1.515 0.38 2.875-0.73 0.885-1.85 1.608-2.47 1.625-0.62 0.018-2.01 0.714-3.09 1.531-1.84 1.392-1.76 1.446 1.25 0.844 2.76-0.552 3.22-0.363 3.22 1.344 0 1.431-1.23 2.473-4.41 3.687-4.89 1.866-8.01 4.563-5.25 4.563 0.87 0 3.16-0.735 5.09-1.656 3.21-1.53 3.67-1.54 5.28-0.094 1.76 1.569 5.45 2.623 8.25 2.375 1-0.088 1.99-2.822 3.19-8.625 0.97-4.672 2.42-12.55 3.22-17.5s2.84-15.854 4.53-24.25c4.15-20.511 4-23.25-1.4-23.25z"/>
      <g id="g4078" stroke="#917c6f" fill="#a00" transform="translate(400.49 45.644)">
        <path id="path3220" d="m-216.38 184c4.37-0.02 7.97 0.28 8.69 1 0.79 0.79 0.73 2.71-0.19 6.88-2.93 13.31-3.83 14.06-18.15 14.93-9.19 0.56-10.6 0.41-11.88-1.12-1.82-2.2-1.62-8.48 0.41-12.41 0.86-1.65 1.56-3.65 1.56-4.44 0-0.78 0.59-1.93 1.32-2.53 1.61-1.33 10.98-2.27 18.24-2.31z"/>
        <path id="path3218" d="m-278.38 184.78c2.47-0.04 5.66 0.03 9.76 0.16 14.19 0.44 14.86 0.56 16.34 2.81 1.27 1.94 1.33 3.2 0.44 7.37-0.6 2.78-1.72 6.6-2.5 8.47-1.68 4.01-2.81 4.28-22.41 4.91-9.75 0.31-12.62 0.07-13.75-1.06-1.83-1.83-1.82-1.76 0.72-11.88 1.54-6.14 2.73-8.89 4.25-9.81 0.97-0.59 3.05-0.91 7.15-0.97z"/>
        <path id="path3216" d="m-321.62 186.28c5.91-0.08 17.03 1.34 18.34 2.66 2.9 2.9-1.56 15.84-6.66 19.31-3.36 2.29-18.98 3.39-21.56 1.5-1.72-1.26-1.72-1.64 0.03-9.22 2.04-8.84 4.12-13.09 6.78-13.94 0.63-0.2 1.7-0.29 3.07-0.31z"/>
        <path id="path3214" d="m-215.19 187.38c-1.07 0.02-2.38 0.15-4 0.31-11.46 1.13-13.04 1.36-13.84 2.19-0.42 0.42-1.09 3.59-1.47 7.03l-0.69 6.25h8.57c4.71 0 9.66-0.42 11.03-0.94 1.99-0.76 2.72-2.05 3.65-6.56 1.42-6.83 1.42-8.4-3.25-8.28z"/>
        <path id="path3212" d="m-282.5 187.91c-1.53 0.02-2 1.26-3.53 7.25-1.06 4.11-1.72 8.01-1.47 8.65 0.49 1.27 27.2 1.33 29.25 0.07 1.25-0.77 3.31-8.39 3.31-12.16 0-2.34-0.36-2.57-4.25-2.6-5.23-0.02-19.41-0.74-22.59-1.15-0.27-0.04-0.5-0.07-0.72-0.06z"/>
        <path id="path3210" d="m-318.62 190.81c-0.55 0.02-1.1 0.03-1.63 0.1-2.97 0.37-4.06 1.08-4.87 3.12-1.92 4.84-3.61 11.99-2.97 12.63 0.62 0.62 14.16-0.24 17.28-1.1 1.76-0.49 4.87-7.62 4.87-11.18 0-1.88-0.54-2.22-3.56-2.22-1.96 0-4.32-0.37-5.25-0.85-0.69-0.35-2.25-0.54-3.87-0.5z"/>
        <path id="path3208" d="m-239.16 220.06c4.04 0.01 6.53 0.16 7.04 0.47 1.71 1.06 1.5 12.65-0.32 17-0.94 2.25-2.35 3.77-3.75 4.06-4.61 0.98-23.83 1.11-24.78 0.16-1.44-1.44-1.03-8.26 0.88-15.09 1.55-5.57 1.88-6 4.65-6.13 6.65-0.3 12.25-0.47 16.28-0.47z"/>
        <path id="path3206" d="m-275.84 220.12c6.1-0.05 10.83 0.43 11.18 1.35 0.46 1.2-1.14 7.19-4.59 17.03-1.36 3.87-4.11 4.66-16.13 4.66-7.81 0-10.61-0.34-11.53-1.44-1.37-1.66-0.87-4.95 2.1-14.19l1.97-6.15 5.22-0.57c3.98-0.43 8.11-0.65 11.78-0.69z"/>
        <path id="path3202" d="m-310.09 220.66h10.65l0.32 2.62c0.47 4.07-3.46 14.09-6.66 17-2.19 1.99-4.69 2.88-10.56 3.75-9.95 1.48-11.09 1.44-12.6-0.37-1.01-1.23-0.93-2.61 0.47-7.25 4.85-16.06 4.47-15.75 18.38-15.75z"/>
        <path id="path3200" d="m-309.12 223.19c-1.01 0.02-2.17 0.09-3.47 0.15-8.2 0.42-8.72 0.77-10.35 7.32-0.54 2.2-1.38 5.2-1.87 6.68-0.5 1.48-0.61 3.02-0.25 3.38 0.98 1.01 10.65-0.4 15.12-2.19 3.64-1.45 4.18-2.12 5.91-7.72 2.05-6.65 1.95-7.8-5.09-7.62z"/>
        <path id="path3198" d="m-274.12 223.66c-4.26 0.02-10.36 0.45-13.54 1.09-1.66 0.34-2.59 1.7-3.75 5.59-2.67 9-2.83 8.83 7.72 8.82 5.09-0.01 9.75-0.35 10.38-0.75 1.36-0.88 4.63-13.05 3.84-14.32-0.19-0.31-2.1-0.45-4.65-0.43z"/>
        <path id="path3196" d="m-234.44 223.66l-7.5 0.28c-13.46 0.48-13.67 0.58-14.9 6.31-1.8 8.39-2.41 7.91 9.93 7.91 7.92 0 11.18-0.36 11.5-1.25 0.26-0.69 0.58-3.95 0.72-7.25l0.25-6z"/>
        <path id="path3190" d="m-316.41 250.69c13.09 0.03 13.74 0.5 12.53 9-0.46 3.31-1.51 7.58-2.31 9.5-1.44 3.44-1.55 3.49-10.34 4.75-4.9 0.7-10.09 1.53-11.56 1.84-2.27 0.49-2.93 0.09-4.38-2.72-1.64-3.16-1.61-3.62 0.56-11.34 1.25-4.43 2.89-8.74 3.66-9.56 1.07-1.16 3.81-1.49 11.84-1.47z"/>
        <path id="path3188" d="m-262.03 252.16h10.91c13.71 0 13.96 0.21 11.37 9.87-2.16 8.06-4.46 12.06-6.97 12.25-5.14 0.38-7.08 0.61-10.72 1.13-2.2 0.31-5.35 0.25-7-0.13-2.91-0.66-2.98-0.85-2.87-6.25 0.07-3.68 0.97-7.48 2.69-11.22l2.59-5.65z"/>
        <path id="path3186" d="m-278.66 252.44c4.38 0.06 6.06 0.4 6.35 1.15 0.73 1.91-3.41 17.84-4.88 18.75-0.68 0.43-3.05 0.99-5.25 1.25-9.81 1.2-13.53 1.23-15.68 0.16-3.28-1.63-3.27-4 0.06-13.09l2.94-8 11.12-0.19c2.12-0.04 3.88-0.05 5.34-0.03z"/>
        <path id="path3184" d="m-315.25 254.16c-8.99 0-10.21 0.66-12.03 6.43-0.91 2.89-1.66 6.52-1.66 8.07v2.78l6.85-0.63c3.75-0.35 8.21-0.91 9.9-1.25 2.63-0.52 3.23-1.23 4.16-4.94 2.17-8.62 0.91-10.46-7.22-10.46z"/>
        <path id="path3182" d="m-250.34 255.16c-4.63 0-9.11 0.27-9.94 0.59-0.95 0.36-1.96 3.14-2.75 7.56-1.06 5.95-1.02 7.17 0.19 7.97 1.68 1.12 14.88 0.1 16.59-1.28 1.48-1.2 4.31-9.41 4.31-12.5 0-2.25-0.26-2.34-8.4-2.34z"/>
        <path id="path3178" d="m-279.47 256.06c-0.54 0-1.13 0-1.72 0.03-2.34 0.15-5.79 0.36-7.69 0.44-3.27 0.14-3.56 0.45-5.87 6.5-2.01 5.27-2.21 6.5-1.06 7.25 0.76 0.5 2.27 0.68 3.37 0.41 1.1-0.28 4.34-0.49 7.19-0.5 3.21-0.01 5.74-0.59 6.66-1.5 1.53-1.53 3.33-11.2 2.28-12.25-0.25-0.25-1.54-0.38-3.16-0.38z"/>
        <path id="path3170" d="m-323.31 281.16c0.86-0.01 1.82 0 2.93 0 11.2 0 12.03 0.62 10.35 7.65-3.14 13.14-4.84 14.62-17.22 15.16-7.34 0.32-9.52 0.12-10.5-1.06-1-1.21-0.73-2.89 1.41-8.82 1.45-4.02 3.58-8.58 4.72-10.12 1.75-2.37 2.25-2.76 8.31-2.81z"/>
        <path id="path3168" d="m-256.5 282.16c9.9 0 11.14 0.86 10.22 7.25-1.61 11.16-2.02 12.18-5.66 14-4.55 2.27-20.12 2.49-21.94 0.31-0.91-1.1-0.9-2.87 0.04-7.75 1.36-7.12 2.46-9.81 4.06-9.81 0.75 0 0.9 2.15 0.44 6.87-0.58 5.84-0.45 6.97 0.93 7.5 2.9 1.11 14.05 0.67 15.69-0.62 1.65-1.3 3.92-11.97 2.88-13.5-0.33-0.48-3.88-0.92-7.91-0.97-7.64-0.1-8.82-0.45-7.72-2.22 0.38-0.62 4.16-1.06 8.97-1.06z"/>
        <path id="path3166" d="m-297.09 282.38c1.05-0.04 2.44 0.1 4.53 0.34 3.37 0.39 8.06 0.8 10.4 0.9 5.67 0.25 6.32 1.1 5 6.54-0.59 2.47-1.46 6.16-1.93 8.18-0.82 3.47-1.17 3.74-6.1 4.69-10.24 1.98-15.14 2.18-18.5 0.69v-0.03c-1.79-0.8-3.25-2.16-3.25-3.03 0-3.22 4.14-14.28 6.16-16.44 1.18-1.26 1.94-1.78 3.69-1.84z"/>
        <path id="path3164" d="m-319.75 284.16c-3.89 0-7.51 0.53-8.47 1.25-1.44 1.07-5.72 11.47-5.72 13.9 0 1.26 12.52 1.04 15.41-0.28 2.58-1.17 5.59-7.93 5.59-12.53 0-2.2-0.35-2.34-6.81-2.34z"/>
        <path id="path3162" d="m-293.31 285.78c-1.74 0.04-3.22 0.17-4.13 0.47-2.6 0.87-5.59 12.6-3.53 13.87 1.41 0.88 13.45 0.18 16.53-0.96 2.16-0.8 5.14-8.92 4.19-11.41-0.45-1.18-7.86-2.09-13.06-1.97z"/>
        <path id="path3158" d="m-258.31 312.75c2.24-0.03 5.21 0.06 8.37 0.25l11.5 0.66 0.32 6.5c0.32 6.94-1.89 15.96-4.41 18.06-2.17 1.8-23.44 2-26.78 0.25-3.1-1.62-3.08-1.51-0.78-11.81 1.36-6.12 2.22-8.08 3.62-8.35 1.61-0.31 1.75 0.12 1.16 3.5-0.37 2.12-0.96 5.91-1.28 8.44-0.59 4.55-0.56 4.61 2.65 5.25 4.1 0.82 16.34 0.87 18.44 0.06 0.87-0.33 1.58-1.34 1.59-2.25 0.02-0.9 0.7-2.52 1.5-3.59 1.77-2.34 1.97-10.66 0.29-12.34-0.77-0.77-4.59-1.22-10.44-1.22-8.79 0-11.84-0.94-9.72-3 0.24-0.23 1.73-0.38 3.97-0.41z"/>
        <path id="path3156" d="m-336.62 313.97c4.63-0.1 11.3 0.36 14.87 1.28 4.08 1.05 5.56 3.66 3.87 6.81-0.58 1.09-1.06 2.88-1.06 3.97 0 2.73-4.73 8.11-8.5 9.69-4.69 1.96-24.67 2.98-26.25 1.34-1.77-1.84-1.54-4.58 0.85-10.9 2.6-6.89 5.65-10.45 7.59-8.85 1.14 0.95 1.1 1.42-0.22 2.88-1.54 1.7-5.47 11.04-5.47 13 0 2.71 22.17 0.1 25.47-3 2-1.88 5.22-9.69 4.35-10.57-0.2-0.19-4.28-0.84-9.07-1.43-10-1.25-11.98-1.84-11.43-3.41 0.17-0.5 2.22-0.75 5-0.81z"/>
        <path id="path3154" d="m-297.25 314.75c1.88-0.04 4.35 0.01 7.63 0.16 13.55 0.61 15.07 1.2 14.18 5.56-1.11 5.5-4.7 15.61-5.87 16.56-0.62 0.5-7.66 1.23-15.66 1.63-12.95 0.63-14.69 0.53-15.94-0.97-2.45-2.96 1.75-18.53 5-18.53 1.36 0 1.24 1.85-0.59 9-0.87 3.39-1.3 6.44-0.97 6.78 0.71 0.7 16.1 0.45 22.09-0.38 3.86-0.53 4.16-0.84 6.35-6.34 3.78-9.51 3.72-9.57-11.16-9.44-7 0.07-12.75-0.24-12.75-0.69 0-0.44 0.94-1.46 2.06-2.25 1-0.7 2.5-1.03 5.63-1.09z"/>
      </g>
      <path id="path3122" d="m124.5 471.98c-2.75-0.44-11.75-0.85-20-0.9-16.844-0.11-53.398-2.58-58.024-3.93-1.664-0.48-6.604-2.53-10.979-4.56-13.453-6.21-15.734-9.31-18.962-25.78-1.328-6.77-3.116-13.98-3.974-16.03-1.971-4.69-2.006-15.43-0.101-31.28 1.877-15.62 2.888-20.63 6.957-34.5 4.191-14.28 7.186-26.27 10.12-40.5 1.248-6.05 3.19-15.28 4.316-20.5s3.67-17.75 5.653-27.83 4.083-19.53 4.665-21c3.353-8.45 8.163-31.22 10.327-48.89 0.92-7.51 2.333-14.34 3.429-16.57 1.025-2.09 1.666-4.56 1.424-5.5-0.689-2.68 4.201-22.07 10.226-40.56 3.074-9.44 5.229-17.69 4.895-18.74-0.394-1.24 0.28-2.75 1.985-4.46 1.42-1.42 3.312-3.69 4.204-5.06 2.309-3.52 9.278-7.32 16.538-9.014 7.201-1.68 76.031-2.48 90.821-1.055l8.53 0.821 4.63-12.821c2.55-7.052 5.85-17.321 7.34-22.821 7.37-27.184 10.63-33.867 19.5-40.013 3.6-2.495 4.23-2.627 7.01-1.476 1.68 0.696 3.71 2.203 4.51 3.349 1.68 2.405 1.89 8.894 0.48 14.947-0.54 2.306-2.12 10.493-3.52 18.193s-3.73 20.005-5.19 27.345l-2.64 13.344 3.06 2.398c3.96 3.093 9.6 11.633 11.6 17.563 4.26 12.58 3.51 65.99-1.2 85.35-4.91 20.22-5.86 26.35-10.18 66-0.59 5.5-1.93 13.6-2.97 18-1.03 4.4-2.37 12.05-2.98 17s-2.18 13.17-3.5 18.27c-1.33 5.11-2.67 12.08-3 15.5-0.32 3.43-1.01 7.81-1.51 9.73-0.51 1.92-2.08 9.8-3.49 17.5-1.4 7.7-3.44 17.88-4.53 22.62-1.08 4.75-1.97 10.65-1.97 13.12 0 12.08-7.34 39.41-13.1 48.76-3.67 5.97-12.73 11.82-26 16.81-17.09 6.41-33.1 9-44.4 7.17zm13.71-5.59c-0.34-2.51 3.56-13.39 4.8-13.39 1.89 0 1.88 2.01-0.02 7.54-1.1 3.17-1.99 6.15-1.99 6.62 0 1.3 6.41 0.99 8.32-0.41 1.03-0.75 2.17-3.84 2.86-7.75 1.39-7.88 2.38-9.26 3.87-5.41 0.83 2.12 0.84 3.74 0.04 5.98-1.55 4.36-1.37 5.43 0.91 5.43 1.25 0 2-0.67 2-1.79 0-2.81 4.43-13.52 5.78-13.97 1.65-0.55 1.53 1.56-0.44 7.66-0.91 2.82-1.37 5.4-1.03 5.75 0.35 0.34 1.94 0.07 3.55-0.59 2.69-1.12 3.01-1.82 4.13-8.99 1.39-8.97 2.46-11.4 4-9.07 0.54 0.82 0.81 1.99 0.59 2.59-1.15 3.17-1.72 12.41-0.76 12.41 2.12 0 13.75-8.73 15.93-11.97 2.41-3.56 2.87-8.26 1.24-12.55-1.39-3.67-0.32-4.93 2.58-3.03 2.26 1.48 2.42 1.45 2.93-0.69 0.3-1.27-0.54-4.88-1.93-8.26-1.48-3.59-2.1-6.36-1.56-6.91 1.25-1.25 3.65 0.92 4.42 3.99 0.35 1.38 1.07 2.23 1.6 1.9 1.82-1.12 0.97-7.94-1.54-12.33-1.37-2.4-2.49-4.76-2.49-5.25 0-1.7 2.93-0.9 4 1.1 0.59 1.1 1.47 2 1.96 2 1.85 0 1.62-3.71-0.63-9.85-2.5-6.85-2.32-8.75 0.66-7.15 2.7 1.44 2.77 1.38 3.48-2.84 0.5-2.94 0.05-5.18-1.91-9.62-1.41-3.18-2.56-6.18-2.56-6.66 0-1.87 2.85-0.75 4.49 1.75 1.36 2.07 1.92 2.34 2.6 1.25 1.48-2.32 1.02-5.56-1.59-11.48-1.38-3.11-2.5-6.04-2.5-6.52 0-1.93 3.11-0.72 4.18 1.62 0.63 1.38 1.57 2.5 2.09 2.5 1.3 0 0.4-5.52-1.83-11.21-2.22-5.68-1.23-7.32 1.98-3.29l2.33 2.92 0.67-3.06c0.6-2.74-0.21-6.28-2.89-12.61-0.84-1.97 1.85-2.56 3.02-0.66 0.48 0.77 0.99 0.77 1.74 0.02 0.76-0.76 0-2.63-2.61-6.41-2.02-2.94-3.68-5.88-3.68-6.52 0-2.15 1.82-1.22 4.88 2.5l3.04 3.67 1.04-2.74c1.56-4.1 1.23-8.6-0.98-13.47-1.09-2.4-1.98-4.76-1.98-5.25 0-1.64 2.16-0.91 4.01 1.36l1.82 2.25 0.71-2.8c0.46-1.85 0.03-4.56-1.27-8-2.32-6.12-2.02-8.69 0.73-6.2 2.95 2.67 3.18 0.09 0.51-5.65-2.61-5.61-3.17-8.85-1.54-8.85 0.54 0 1.68 1.36 2.55 3.03 1.65 3.21 3.48 3.16 3.48-0.09 0-1.06-0.95-4.66-2.1-8-2.26-6.54-1.99-8.23 0.92-5.6 1.01 0.91 2.14 1.66 2.51 1.66 1.63 0 0.44-6.25-1.83-9.6-2.81-4.13-3.42-8.69-1.04-7.78 0.81 0.31 1.74 1.42 2.07 2.47 0.9 2.84 2.14 2.31 2.85-1.21 1.05-5.27 0.7-8.24-1.38-11.65-1.1-1.8-2-3.94-2-4.75 0-1.76 2.57-1.98 3.61-0.31 0.47 0.77 1 0.4 1.55-1.08 0.62-1.66 0.18-3.36-1.66-6.51-2.59-4.42-3.22-7.58-1.51-7.58 0.55 0 1.56 0.9 2.24 2 0.69 1.1 1.54 2 1.89 2 1.49 0 1.7-6.26 0.33-10.15-1.05-2.97-1.18-4.52-0.43-5.27s1.33-0.63 1.97 0.4c0.49 0.8 1.18 1.18 1.52 0.84s-0.55-2.93-1.98-5.76c-2.45-4.83-2.61-7.06-0.5-7.06 0.5 0 1.56 1.24 2.36 2.75l1.45 2.75 1.14-2.98c0.83-2.16 0.85-4.13 0.08-7.19-1.48-5.9-1.34-7.02 0.94-7.62 2.5-0.65 2.71-5.44 0.43-9.85-1.61-3.11-1.25-6.49 0.57-5.36 2.04 1.26 2.08-2.42 0.07-6.36-3.05-5.99-2.6-10.27 0.73-6.94 1.82 1.82 1.51-6.21-0.33-8.64-1.67-2.21-1.98-6.56-0.47-6.56 1.5 0 1.2-3.28-0.64-6.98-1.52-3.04-1.52-3.35 0-4.2 1-0.56 1.64-2.2 1.64-4.19 0-3.9-2.88-12.82-3.93-12.18-0.4 0.26-1.29 3.74-1.98 7.76-0.69 4.01-1.85 9.77-2.6 12.79-2.95 12.02-5.48 27.27-7.05 42.5-1.62 15.86-3.22 24.71-7.95 44-1.34 5.5-2.91 12.92-3.47 16.5-0.99 6.31-2.13 11.87-7.35 36-6.3 29.08-8.02 36.19-13.21 54.59-3.05 10.8-6.15 22.4-6.9 25.78-0.74 3.37-2.28 9.73-3.41 14.13s-2.74 13.85-3.57 21-2.16 15.02-2.94 17.5-2 7.2-2.71 10.5c-3.48 16.12-8.78 21.16-27.48 26.06-7.45 1.96-11.2 2.45-14.95 1.98-5.56-0.7-44.17-2.54-84.012-4.01-7.707-0.28-16.658-1.2-19.892-2.05-3.234-0.84-6.075-1.33-6.312-1.1-0.237 0.24 0.338 1.92 1.279 3.74 0.94 1.82 1.71 5.02 1.71 7.12 0 4.92 1.236 5.61 3.21 1.79 2.186-4.22 4.882-4.09 4.286 0.22-0.247 1.79-0.633 3.87-0.859 4.63-0.225 0.75 0.083 1.55 0.686 1.78 0.603 0.22 1.51-1.04 2.015-2.8s1.544-3.41 2.308-3.67c1.109-0.37 1.263 0.47 0.76 4.13-0.395 2.89-0.225 4.84 0.458 5.26 1.442 0.9 2.829-1.43 2.848-4.77 0.015-2.65 1.575-4.58 2.752-3.41 0.333 0.34 0.503 3.12 0.379 6.19-0.197 4.88-0.002 5.53 1.559 5.23 0.981-0.18 2.186-1.69 2.677-3.33 1.962-6.56 2.7-7.84 3.864-6.67 0.826 0.82 0.814 2.14-0.048 5.01-1.533 5.12-1.475 7.17 0.204 7.17 0.801 0 1.973-2.16 2.815-5.19 1.779-6.39 4.46-8.1 3.441-2.19-1.326 7.69-1.295 7.86 1.477 8.18 2.349 0.28 2.728-0.17 3.848-4.5 1.87-7.23 1.901-7.3 3.095-7.3 0.774 0 0.897 2 0.406 6.59-0.697 6.51-0.679 6.58 1.651 6.25 1.939-0.28 2.556-1.25 3.491-5.47 1.398-6.32 2.277-7.9 3.636-6.54 0.675 0.68 0.609 2.67-0.201 6.04-1.173 4.89-0.862 7.13 0.989 7.13 0.821 0 1.66-2.53 3.399-10.25 0.36-1.6 1.29-2.75 2.225-2.75 1.287 0 1.469 0.65 0.917 3.25-2.102 9.91-2.098 9.94 0.982 9.58 2.595-0.3 2.946-0.85 4.225-6.64 0.867-3.91 1.838-6.15 2.564-5.9 1.302 0.45 1.417 4.78 0.237 8.93-0.66 2.33-0.397 2.9 1.799 3.9 3.59 1.64 5.208 0.02 7.241-7.22 0.991-3.52 2.211-5.9 3.021-5.9 1.78 0 1.74 2.71-0.12 7.98-1.76 4.98-1.35 6.02 2.37 6.02 2.47 0 3.03-0.68 5.19-6.25 1.34-3.44 2.88-6.03 3.43-5.75 1.06 0.53 1.05 0.97-0.07 7.83-0.71 4.32-0.71 4.33 2.18 4 2.59-0.3 3.12-1.01 5.06-6.83 1.3-3.87 2.81-6.63 3.75-6.82 2.01-0.41 1.99 0.86-0.12 7.55-2.13 6.74-1.42 7.39 7.7 7.03 5.97-0.24 6.48-0.43 6.21-2.37zm-8.21-2.42c0-1.67 0.69-4.67 1.52-6.68 1.16-2.77 1.8-3.37 2.69-2.48 0.88 0.88 0.75 2.48-0.57 6.68-1.91 6.04-3.64 7.22-3.64 2.48zm51.67-12.64c-1.12-1.12-0.74-12.17 0.44-12.9 1.67-1.03 2.86 1.56 2.87 6.24 0.03 6.05-1.29 8.69-3.31 6.66zm-36.17-13.28c8.07-1.66 15.74-5.42 19.28-9.45 2.28-2.6 3.49-5.81 5.54-14.71 3.51-15.21 5.68-27.32 5.68-31.71 0-3.81 5.67-29.26 9.51-42.68 9.32-32.57 19.05-73.88 22.98-97.5 0.86-5.22 2.67-14.22 4.02-20 4.9-21 7.5-35.46 9.06-50.33 1.45-13.88 3.22-24.15 8.48-49.17 2.36-11.25 2.51-18.79 0.4-20.54-4.14-3.434-125.95-4.666-134.95-1.36-2.916 1.07-9.454 5.75-9.479 6.79-0.011 0.49 0.75 1.45 1.691 2.14 1.448 1.06 1.506 1.5 0.378 2.86-0.734 0.89-2.582 1.61-4.105 1.61-1.541 0-3.027 0.67-3.347 1.5-0.35 0.91-0.001 1.5 0.893 1.5 2.343 0 1.732 1.7-2.151 6-2.941 3.26-3.393 4.28-2.414 5.46 0.968 1.17 0.701 2.11-1.362 4.81-1.984 2.61-2.296 3.64-1.375 4.56s0.789 1.87-0.583 4.19c-1.034 1.75-1.508 3.84-1.137 5.01 0.437 1.38-0.309 3.19-2.395 5.83-2.105 2.65-2.712 4.14-1.987 4.87 0.724 0.72 0.559 1.98-0.542 4.11-0.899 1.73-1.585 5.51-1.585 8.72 0 4.63-0.471 6.21-2.597 8.74-2.321 2.76-2.427 3.21-1 4.25 2.109 1.54 2.038 2.01-0.903 5.86-2.597 3.41-3.334 8.15-1.368 8.8 0.783 0.26 0.629 1.35-0.5 3.53-2.003 3.88-2.085 5.65-0.23 4.94 2.244-0.87 2.629 0.36 1.065 3.38-0.799 1.55-1.186 3.51-0.86 4.36 0.347 0.9-0.692 3.16-2.508 5.45-3.064 3.87-3.894 6.13-2.254 6.13 0.465 0 1.66-0.9 2.655-2s2.19-2 2.655-2c1.973 0 0.526 2.64-4.155 7.59-4.409 4.67-6.334 8.41-4.321 8.41 0.373 0 2.239-1.69 4.147-3.75 2.214-2.39 3.629-3.29 3.915-2.47 0.515 1.48-3.51 7.06-8.971 12.43-3.171 3.12-5.109 7.79-3.233 7.79 0.296 0 2.506-2.02 4.911-4.5 3.788-3.9 7.552-5.83 7.552-3.89 0 0.34-3.415 4.13-7.59 8.42-4.308 4.43-7.443 8.47-7.25 9.35 0.252 1.16 1.632 0.4 5.333-2.91 4.723-4.23 6.507-5.28 6.507-3.84 0 0.35-3.15 3.95-7 8.01-6.395 6.73-8.515 10.36-6.051 10.36 0.522 0 2.125-1.54 3.562-3.43 2.782-3.64 7.315-7.08 8.191-6.2 0.29 0.29-2.786 4.18-6.837 8.64-4.051 4.47-7.688 8.99-8.083 10.05-1.296 3.5 1.563 2.13 5.873-2.8 2.285-2.62 4.489-4.43 4.898-4.03 1.02 1.01-4.154 8.27-8.627 12.11-2.174 1.87-3.959 4.49-4.378 6.41-0.88 4.05 0.248 4.12 3.952 0.25 1.581-1.65 3.24-3 3.687-3 1.952 0 0.411 2.62-5.187 8.82-3.3 3.66-6 7.43-6 8.38 0 2.31 2.417 1.34 4.463-1.78 1.658-2.53 4.537-3.29 4.537-1.2 0 0.67-2.255 3.5-5.01 6.29-2.756 2.79-5.424 6.52-5.93 8.28-1.076 3.75-0.522 3.99 2.554 1.1 3.919-3.68 4.635-1.54 0.933 2.78-3.44 4.02-4.59 7.33-2.547 7.33 1.951 0 0.948 2.25-3 6.74-4.417 5.02-5.237 7.79-2 6.76 2.906-0.92 2.491 0.4-2 6.38-2.2 2.93-4 5.73-4 6.22 0 1.22 2.731 1.14 3.5-0.1 0.34-0.55 1.041-1 1.559-1 1.99 0 0.785 2.46-2.944 6.01-2.136 2.03-4.386 4.63-5 5.77-2.113 3.95-1.107 4.6 2.183 1.42 3.706-3.6 4.702-3.93 4.702-1.58 0 0.89-2.237 3.88-4.972 6.64-5.353 5.41-5.904 8.5-0.741 4.15 4-3.36 4.793-1.52 1.309 3.05l-2.592 3.4 2.194 0.32c2.101 0.31 2.049 0.49-1.217 4.2l-3.411 3.87 3.215-0.7c1.768-0.39 3.215-0.43 3.215-0.09s-1.783 2.37-3.962 4.5c-3.75 3.68-6.01 8.4-4.664 9.75 0.337 0.33 1.439-0.14 2.449-1.05 1.843-1.67 5.177-2.28 5.177-0.95 0 0.39-1.852 2.6-4.117 4.91-2.264 2.31-3.822 4.67-3.463 5.25 0.414 0.67 1.372 0.34 2.616-0.91 1.632-1.63 4.964-2.74 4.964-1.65 0 0.16-1.125 1.83-2.5 3.69-3.177 4.31-3.148 5.2 0.142 4.38l2.641-0.67-1.791 3.03c-1.682 2.85-1.546 6.26 0.249 6.26 0.442 0 1.652-1.58 2.689-3.5 1.842-3.42 4.57-4.75 4.57-2.24 0 0.7-0.869 2.89-1.931 4.87-1.438 2.68-1.642 3.9-0.8 4.74 1.841 1.84 3.136 1.28 4.79-2.08 1.757-3.57 4.621-5.27 3.658-2.17-2.052 6.59-2.068 6.38 0.482 6.38 1.797 0 3.02-1.05 4.681-4 2.611-4.65 4.669-5.34 3.705-1.25-1.293 5.49-1.205 5.74 2.114 6.06 2.854 0.28 3.423-0.13 5.271-3.75 1.139-2.23 2.789-4.06 3.667-4.06 1.543 0 1.58 0.9 0.25 5.98-0.769 2.93 3.584 2.23 5.945-0.97 2.452-3.31 4.445-3.15 3.966 0.33-0.245 1.77 0.271 2.22 2.886 2.47 2.486 0.24 3.449-0.2 4.399-2 2.333-4.43 5.406-4.61 4.312-0.25-0.526 2.1-0.262 2.44 1.882 2.44 1.556 0 3.109-0.94 4.131-2.5 2.395-3.66 4.936-3.34 4.092 0.5-0.585 2.66-0.398 3 1.671 2.99 1.537 0 2.908-1.02 4.032-3 0.937-1.64 2.452-2.99 3.367-2.99 1.652 0 1.639 1.12-0.064 5.25-0.612 1.49-0.144 1.75 3.137 1.75 3.227 0 4.327-0.59 6.717-3.59 1.87-2.34 3.2-3.25 3.85-2.6 0.64 0.64 0.6 1.68-0.12 3.02-1.6 3-1.45 3.17 2.81 3.17 3.4 0 4.17-0.45 5.97-3.5 1.13-1.92 2.81-3.5 3.71-3.5 1.64 0 1.62 1.13-0.07 5.24-1.14 2.77 2.2 3.38 4.86 0.89 3.02-2.85 4.63-2.68 4.63 0.47 0 2.47 0.22 2.58 4.25 2.14 2.34-0.25 6.95-1.02 10.25-1.69zm-15.5-6.41c-8.89-1.93-9.12-2.33-6.38-10.73 2.32-7.07 5.08-8.91 13.39-8.91 3.85 0 8.35 0.67 10.48 1.56l3.74 1.56-0.41 6.41c-0.56 8.73-3.06 11.5-10.24 11.39-2.8-0.05-7.56-0.62-10.58-1.28zm14.5-4.14c0-0.55-2.36-1.14-5.25-1.3-5.01-0.29-7.28 1.1-3.5 2.13 2.9 0.8 8.75 0.24 8.75-0.83zm-5.36-9.5c3.73 0 5.75-0.38 5.36-1-1.19-1.92-14.5-0.79-14.5 1.23 0 0.54 0.71 0.71 1.58 0.38 0.87-0.34 4.27-0.61 7.56-0.61zm-57.747-22.58c0.334-0.87 0.607-1.77 0.607-2s0.723-0.42 1.607-0.42c1.055 0 1.398 0.54 1 1.58-0.334 0.87-0.607 1.77-0.607 2s-0.723 0.42-1.607 0.42c-1.055 0-1.398-0.54-1-1.58zm-20.991-1.81c-0.941-2.46 2.105-5.5 3.802-3.81 0.958 0.96 0.754 1.69-0.954 3.39-2.004 2.01-2.224 2.04-2.848 0.42zm72.208-0.19c-0.85-2.22-0.79-2.42 0.78-2.42 1.51 0 2.85 2.43 1.87 3.4-1.02 1.03-2.02 0.66-2.65-0.98zm-22.61-0.92c0-0.82 0.45-1.5 1-1.5s1 0.68 1 1.5-0.45 1.5-1 1.5-1-0.68-1-1.5zm44-0.5c0-0.55 0.45-1 1-1s1 0.45 1 1-0.45 1-1 1-1-0.45-1-1zm-23.37-7.68c-3.09-1.62-3.08-1.51-0.78-11.82 1.36-6.12 2.21-8.08 3.61-8.35 1.61-0.31 1.75 0.12 1.16 3.5-0.37 2.12-0.94 5.92-1.27 8.45-0.59 4.55-0.56 4.61 2.65 5.25 4.1 0.82 16.32 0.85 18.42 0.04 0.87-0.33 1.59-1.34 1.61-2.25 0.02-0.9 0.69-2.51 1.5-3.58 1.77-2.34 1.95-10.68 0.27-12.36-0.76-0.76-4.59-1.2-10.44-1.2-8.79 0-11.85-0.95-9.72-3.01 0.47-0.47 6.04-0.54 12.36-0.17l11.5 0.68 0.31 6.5c0.32 6.94-1.87 15.98-4.4 18.07-2.17 1.8-23.43 2-26.78 0.25zm-43.601-0.78c-2.457-2.97 1.739-18.54 4.994-18.54 1.353 0 1.229 1.86-0.603 9.01-0.869 3.39-1.305 6.44-0.97 6.77 0.705 0.71 16.11 0.43 22.1-0.39 3.85-0.53 4.16-0.84 6.35-6.34 3.78-9.51 3.71-9.57-11.17-9.43-7 0.06-12.73-0.25-12.73-0.7 0-0.44 0.921-1.45 2.048-2.24 1.598-1.12 4.502-1.32 13.252-0.93 13.55 0.62 15.07 1.21 14.18 5.57-1.11 5.5-4.69 15.61-5.86 16.56-0.62 0.5-7.66 1.23-15.66 1.63-12.952 0.63-14.684 0.53-15.931-0.97zm-40.779-0.64c-1.768-1.84-1.559-4.58 0.83-10.9 2.601-6.88 5.671-10.45 7.608-8.84 1.142 0.94 1.107 1.41-0.216 2.87-1.545 1.71-5.472 11.02-5.472 12.98 0 2.72 22.173 0.12 25.476-2.99 1.996-1.87 5.189-9.69 4.316-10.56-0.191-0.19-4.267-0.84-9.057-1.43-10-1.24-11.974-1.83-11.428-3.4 0.462-1.33 14.171-1.01 19.883 0.46 4.075 1.05 5.552 3.65 3.865 6.81-0.58 1.08-1.055 2.86-1.055 3.96 0 2.72-4.742 8.13-8.514 9.71-4.689 1.96-24.659 2.97-26.236 1.33zm50-33.36c-1.788-0.79-3.25-2.16-3.25-3.03 0-3.22 4.142-14.29 6.157-16.45 1.883-2.02 2.653-2.16 8.213-1.51 3.37 0.39 8.05 0.8 10.4 0.9 5.66 0.25 6.33 1.11 5.01 6.55-0.59 2.48-1.47 6.16-1.95 8.18-0.82 3.47-1.18 3.75-6.1 4.7-10.25 1.98-15.119 2.15-18.48 0.66zm19.25-4.56c2.16-0.8 5.13-8.9 4.17-11.39-0.6-1.57-13.57-2.69-17.19-1.49-2.601 0.87-5.578 12.6-3.518 13.88 1.408 0.87 13.458 0.14 16.538-1zm10.56 4.59c-0.92-1.1-0.91-2.87 0.02-7.75 1.36-7.12 2.48-9.82 4.08-9.82 0.76 0 0.89 2.15 0.42 6.87-0.57 5.84-0.43 6.97 0.95 7.5 2.9 1.12 14.03 0.67 15.68-0.62 1.64-1.29 3.92-11.98 2.88-13.52-0.32-0.48-3.89-0.91-7.92-0.96-7.63-0.09-8.81-0.43-7.71-2.2 0.38-0.62 4.16-1.07 8.98-1.07 9.89 0 11.13 0.88 10.21 7.26-1.61 11.16-2.02 12.17-5.66 13.99-4.55 2.28-20.12 2.5-21.93 0.32zm-63.868-0.84c-1-1.2-0.731-2.89 1.405-8.81 1.453-4.03 3.573-8.58 4.71-10.12 2.005-2.71 2.355-2.8 11.259-2.8 11.192 0 12.006 0.6 10.326 7.63-3.138 13.15-4.835 14.64-17.211 15.19-7.338 0.32-9.509 0.09-10.489-1.09zm19.214-3.87c2.579-1.17 5.594-7.93 5.594-12.54 0-2.2-0.352-2.32-6.809-2.32-3.888 0-7.526 0.54-8.482 1.25-1.442 1.08-5.709 11.47-5.709 13.91 0 1.26 12.522 1.02 15.406-0.3zm82.094-17.86c-0.34-0.55 0.31-1 1.44-1s2.06 0.45 2.06 1-0.65 1-1.44 1-1.72-0.45-2.06-1zm-113.81-0.65c-1.416-1.41-0.615-3.35 1.385-3.35 1.398 0 1.968 0.54 1.75 1.67-0.357 1.84-2.064 2.76-3.135 1.68zm17.761-7.45c-1.637-3.16-1.614-3.63 0.563-11.35 1.248-4.43 2.898-8.73 3.667-9.55 1.074-1.15 3.82-1.49 11.852-1.47 13.091 0.03 13.741 0.5 12.538 8.99-0.469 3.32-1.508 7.6-2.309 9.51-1.438 3.44-1.564 3.5-10.358 4.76-4.896 0.7-10.104 1.53-11.574 1.84-2.27 0.49-2.928 0.08-4.379-2.73zm20.291-3.5c2.625-0.52 3.236-1.25 4.168-4.95 2.171-8.62 0.909-10.45-7.217-10.45-8.991 0-10.217 0.66-12.038 6.43-0.909 2.89-1.653 6.51-1.653 8.05v2.81l6.832-0.64c3.757-0.35 8.216-0.91 9.908-1.25zm47.76 5.73c-2.91-0.66-3-0.85-2.89-6.25 0.07-3.69 0.98-7.48 2.69-11.23l2.59-5.65h10.93c13.71 0 13.94 0.2 11.35 9.86-2.16 8.05-4.44 12.08-6.94 12.27-5.14 0.38-7.09 0.58-10.73 1.1-2.2 0.32-5.35 0.27-7-0.1zm18.18-5.3c1.48-1.2 4.32-9.42 4.32-12.51 0-2.24-0.28-2.32-8.42-2.32-4.63 0-9.09 0.26-9.92 0.58-0.95 0.36-1.97 3.16-2.76 7.58-1.06 5.94-1.03 7.15 0.18 7.95 1.68 1.12 14.89 0.1 16.6-1.28zm-51.87 3.77c-3.278-1.63-3.267-4.01 0.06-13.1l2.92-8 11.16-0.2c8.46-0.15 11.27 0.12 11.66 1.12 0.73 1.91-3.41 17.84-4.88 18.75-0.67 0.43-3.03 0.99-5.23 1.26-9.81 1.19-13.54 1.23-15.69 0.17zm12.87-3.59c3.21 0 5.74-0.57 6.65-1.48 1.53-1.54 3.33-11.21 2.28-12.26-0.33-0.33-2.52-0.48-4.86-0.33s-5.8 0.34-7.7 0.42c-3.28 0.13-3.57 0.45-5.88 6.5-2.01 5.27-2.19 6.52-1.05 7.26 0.76 0.5 2.28 0.68 3.38 0.41 1.1-0.28 4.33-0.51 7.18-0.52zm53.54-5.16c0.24-0.74 1.25-1.51 2.23-1.7 1.14-0.22 1.62 0.14 1.33 1-0.24 0.74-1.25 1.51-2.23 1.7-1.14 0.22-1.62-0.14-1.33-1zm-114.77-6.94c-0.873-1.41 1.055-3.34 2.467-2.46 0.598 0.37 1.087 1.32 1.087 2.11 0 1.68-2.574 1.94-3.554 0.35zm17.544-14.42c-1.016-1.23-0.925-2.61 0.477-7.25 4.849-16.06 4.476-15.74 18.385-15.74h10.648l0.3 2.62c0.48 4.07-3.443 14.08-6.643 16.99-2.192 1.99-4.68 2.87-10.554 3.75-9.942 1.48-11.108 1.44-12.613-0.37zm19.009-5.11c3.638-1.45 4.163-2.14 5.89-7.74 2.347-7.6 1.896-8-8.537-7.47-8.193 0.41-8.72 0.78-10.346 7.33-0.547 2.2-1.398 5.21-1.891 6.69-0.494 1.48-0.609 2.99-0.256 3.35 0.986 1.01 10.667-0.37 15.14-2.16zm13.031 3.16c-1.37-1.65-0.89-4.94 2.09-14.18l1.97-6.14 5.21-0.56c10.61-1.15 22.42-0.82 22.99 0.64 0.46 1.2-1.16 7.2-4.61 17.03-1.36 3.87-4.1 4.67-16.12 4.67-7.82 0-10.61-0.35-11.53-1.46zm23.6-3.31c1.36-0.88 4.61-13.03 3.82-14.3-0.51-0.83-13.08-0.38-18.16 0.64-1.67 0.34-2.6 1.73-3.75 5.62-2.68 9-2.84 8.81 7.71 8.79 5.09 0 9.76-0.34 10.38-0.75zm12.35 3.35c-1.44-1.44-1.05-8.24 0.86-15.08 1.55-5.56 1.89-6.01 4.67-6.14 13.29-0.61 22.29-0.6 23.29 0.02 1.72 1.06 1.51 12.63-0.31 16.98-0.94 2.25-2.34 3.78-3.75 4.08-4.61 0.98-23.81 1.09-24.76 0.14zm25.54-4.83c0.25-0.69 0.57-3.95 0.72-7.25l0.26-6-7.5 0.27c-13.46 0.48-13.69 0.58-14.92 6.31-1.8 8.39-2.39 7.92 9.95 7.92 7.92 0 11.16-0.35 11.49-1.25zm-105.85 1.58c-1.194-1.19-0.704-3.1 0.96-3.74 2.065-0.79 4.426 1.11 3.707 2.98-0.564 1.47-3.484 1.95-4.667 0.76zm118.33-3.9c0-0.93 0.68-1.44 1.67-1.25 2.51 0.48 2.85 2.82 0.41 2.82-1.22 0-2.08-0.65-2.08-1.57zm0-10.81c0-1.84 2.65-3.95 3.96-3.15 1.56 0.97 1.25 3.23-0.54 3.92-2.46 0.95-3.42 0.73-3.42-0.77zm-108.57-14.05c-1.725-1.26-1.724-1.61 0.025-9.19 2.042-8.84 4.113-13.11 6.778-13.95 3.361-1.07 19.793 0.74 21.409 2.36 2.902 2.9-1.549 15.84-6.645 19.31-3.361 2.29-18.989 3.36-21.567 1.47zm20.692-4.18c1.767-0.48 4.875-7.61 4.875-11.17 0-1.88-0.551-2.22-3.566-2.22-1.961 0-4.323-0.39-5.25-0.86-0.926-0.47-3.403-0.65-5.503-0.38-2.968 0.37-4.053 1.06-4.865 3.11-1.92 4.83-3.611 12-2.979 12.63 0.619 0.62 14.174-0.25 17.288-1.11zm20.305 1.9c-1.82-1.83-1.83-1.78 0.71-11.89 1.54-6.15 2.73-8.9 4.25-9.81 1.56-0.95 5.99-1.16 16.91-0.82 14.19 0.44 14.86 0.55 16.34 2.81 1.27 1.94 1.35 3.23 0.46 7.4-0.6 2.78-1.73 6.58-2.51 8.46-1.67 4-2.81 4.25-22.41 4.88-9.75 0.32-12.62 0.1-13.75-1.03zm32.24-3.59c1.25-0.77 3.33-8.37 3.33-12.14 0-2.34-0.36-2.56-4.25-2.58-5.24-0.03-19.41-0.77-22.6-1.18-2.14-0.27-2.51 0.35-4.26 7.19-1.06 4.12-1.72 8.02-1.47 8.66 0.49 1.27 27.2 1.32 29.25 0.05zm20.36 1.83c-1.83-2.19-1.62-8.5 0.41-12.42 0.86-1.66 1.56-3.65 1.56-4.44 0-0.78 0.59-1.92 1.31-2.52 2.58-2.14 25.02-3.22 26.94-1.3 0.78 0.78 0.73 2.7-0.19 6.87-2.93 13.31-3.82 14.04-18.15 14.92-9.18 0.56-10.61 0.43-11.88-1.11zm22.32-3.47c2-0.76 2.71-2.05 3.65-6.56 1.75-8.41 1.35-8.84-7.26-7.99-11.46 1.14-13.04 1.39-13.85 2.21-0.41 0.43-1.07 3.59-1.45 7.03l-0.7 6.25h8.57c4.71 0 9.68-0.42 11.04-0.94zm-114.16-40.64c-5.405-3.79-6.45-10.57-3.084-20.01 1.158-3.25 3.15-10.63 4.427-16.41 2.594-11.73 5.708-24.1 8.631-34.3 1.457-5.07 2.504-6.99 4.143-7.59 3.413-1.24 31.174-3.54 41.194-3.41 4.95 0.07 26.1 0.4 47 0.73 20.9 0.34 39.22 0.61 40.71 0.59 3.74-0.03 6.78 3.51 6.81 7.92 0.06 10.3-9.47 55.25-13.38 63.06-1.57 3.15-3.56 5.23-6.64 6.93-5.43 3.01-4.67 2.98-74.06 3.57-47.115 0.41-53.815 0.28-55.751-1.08zm117.36-3.64c8.16-0.42 12.91-2.69 15.75-7.55 2.52-4.31 8.26-27.78 10.7-43.73 2.31-15.1 2.45-18.65 0.8-20.3-0.87-0.87-8.22-1.2-26.75-1.21-14.05 0-34-0.46-44.32-1.02-14.98-0.82-22.49-0.73-37.25 0.47-10.165 0.82-19.318 1.94-20.34 2.49-1.847 0.98-2.888 4.11-5.176 15.57-0.659 3.3-2.028 8.54-3.042 11.64-1.013 3.1-2.275 8.28-2.803 11.5-0.527 3.22-2.168 9.66-3.645 14.31-2.925 9.2-2.909 15.53 0.045 17.69 1.257 0.92 14.494 1.12 55.321 0.85 29.51-0.19 56.83-0.51 60.71-0.71zm-111.09-10.85c-0.363-0.58-0.409-1.31-0.102-1.62 0.822-0.82 3.643 0.46 3.643 1.66 0 1.36-2.697 1.33-3.541-0.04zm81.901-0.43c-0.31-0.82-0.31-2.19 0.01-3.03 0.39-1.02-0.24-1.85-1.89-2.48-1.36-0.52-2.48-1.51-2.48-2.22-0.01-1.63 4.29-9.77 5.15-9.77 0.36 0 0.42 1.8 0.12 4-0.51 3.8 0.72 5.45 2.23 3 0.75-1.21 5.42 1.94 5.47 3.68 0.02 0.65-0.87 1.47-1.98 1.82s-2.69 1.96-3.53 3.57c-1.71 3.31-2.28 3.57-3.1 1.43zm16.31-3.17c-1.54-1.53-0.44-2.33 3.21-2.33 3.69 0 6.85-1.94 5.44-3.34-0.36-0.36-2.13-0.66-3.93-0.66-4.16 0-4.86-1.19-2.92-4.94 1.85-3.59 4.32-5.06 8.46-5.06 4.13 0 4.02 2.47-0.18 3.95-3.03 1.08-3.12 1.22-1.25 2.23 4.69 2.51 5.6 5.72 2.5 8.82-1.97 1.97-9.78 2.89-11.33 1.33zm-97.325-2.87c-0.326-0.85-0.322-1.82 0.007-2.15 0.713-0.71 3.648 1.55 3.648 2.81 0 1.51-3.032 0.96-3.655-0.66zm43.905-0.16c-3.97-0.52-4.19-2.4-0.74-6.49 2.7-3.21 2.41-5.28-0.62-4.49-2.3 0.6-2.44-0.63-0.32-2.75 2.23-2.22 4.13-1.95 5.97 0.85 1.45 2.22 1.45 2.69-0.02 5.54l-1.61 3.11 3.09 1.08c5.96 2.08 2.13 4.17-5.75 3.15zm21 0.04c-2.13-0.86-1.5-3.55 0.67-2.87 3.1 0.99 3.46-1.37 0.39-2.55l-2.81-1.08 2.25-1.83c1.24-1.01 2.25-2.1 2.25-2.42 0-1.09-5.59-0.6-6.78 0.59-0.65 0.65-1.53 0.84-1.95 0.42-0.43-0.42 0.49-1.86 2.04-3.19 2.73-2.35 7.07-3.12 9.3-1.64 1.73 1.13 2.79 12.04 1.35 13.78-1.18 1.42-4.24 1.78-6.71 0.79zm-36.87-1.79c-0.72-1.88 2.98-11.84 4.6-12.38 1.56-0.52 0.46 7.01-1.62 11.08-1.6 3.12-2.18 3.37-2.98 1.3zm-26.713-4.22c-1.151-1.15-0.729-2.33 0.833-2.33 0.825 0 1.5 0.68 1.5 1.5 0 1.56-1.183 1.98-2.333 0.83zm1.678-5.87c-0.326-0.85-0.341-1.8-0.035-2.1 0.876-0.88 2.69 0.61 2.69 2.2 0 1.92-1.908 1.84-2.655-0.1zm2.306-6.93c-0.706-1.84 1.169-3.11 2.549-1.73 1.067 1.07 0.3 3.2-1.152 3.2-0.459 0-1.088-0.66-1.397-1.47zm1.349-8.03c0-0.82 0.675-1.5 1.5-1.5s1.5 0.68 1.5 1.5-0.675 1.5-1.5 1.5-1.5-0.68-1.5-1.5zm86.75-14.58c-2.65-1.55-2.09-3.09 0.99-2.74 1.65 0.19 2.87 1.01 3.07 2.07 0.37 1.94-1.38 2.23-4.06 0.67zm-7.4-1.46c-0.33-0.85-0.34-1.81-0.02-2.13 1.01-1.01 3.67 0.54 3.67 2.14 0 1.99-2.89 1.99-3.65-0.01zm15.85 0.34c-1.86-1.86-1.42-2.97 1.04-2.62 1.23 0.18 2.39 1.11 2.57 2.07 0.39 2.01-1.82 2.34-3.61 0.55zm-91.68-0.77c-1.625-2.63 4.471-10.44 6.536-8.37 0.705 0.7 0.544 1.43-0.514 2.3-2.83 2.35-1.827 4.04 2.399 4.04 2.168 0 4.219-0.45 4.559-1s-0.31-1-1.441-1c-2.672 0-2.66-2.61 0.019-4.04 3.532-1.89 5.072-0.49 4.732 4.28l-0.31 4.26-7.666 0.29c-4.589 0.17-7.926-0.13-8.314-0.76zm100.98-0.03c-1.08-1.75 0.52-3.23 2.09-1.93 0.78 0.65 1.41 1.57 1.41 2.05 0 1.21-2.74 1.11-3.5-0.12zm7.94-0.42c-1.06-0.78-1.62-1.73-1.24-2.12 1.17-1.17 5.8 0.47 5.8 2.06 0 1.87-2.04 1.9-4.56 0.06zm-80.95-2.6c-1.35-2.61-1.83-2.87-3.61-1.92-2.82 1.51-3.58 0.38-1.39-2.05 2.34-2.59 4.32-2.54 7.21 0.18 1.79 1.68 2.6 1.91 3.51 1 1.63-1.63 3.79-1.5 3.79 0.24 0 1.66-4.64 5.57-6.61 5.57-0.74 0-2.04-1.36-2.9-3.02zm23.04 1.07c-0.37-0.61 0.92-2.7 2.88-4.66l3.55-3.55 2.79 1.98c1.83 1.31 3.73 1.81 5.52 1.47 3.83-0.73 3.64 2.09-0.25 3.7-3 1.24-4.07 1.06-7.23-1.2-1.41-1.01-2.12-0.83-4.14 1.07-1.6 1.5-2.67 1.91-3.12 1.19zm-107.53 191.95c0-0.55-0.45-1-1-1s-1 0.45-1 1 0.45 1 1 1 1-0.45 1-1zm27-118.56c0-0.24-0.45-0.44-1-0.44s-1 0.48-1 1.06 0.45 0.78 1 0.44 1-0.82 1-1.06zm168.16-126.44c0.97-4.672 2.41-12.545 3.21-17.495 0.81-4.95 2.85-15.869 4.55-24.265 4.14-20.511 3.97-23.235-1.43-23.235-2.97 0-7.87 5.225-6.33 6.76 0.87 0.874 0.84 1.531-0.12 2.698-1.01 1.209-1.02 1.856-0.08 2.998 1.6 1.926 0.94 2.788-3.89 5.105-2.23 1.066-4.05 2.292-4.06 2.724 0 0.432 0.86 0.32 1.92-0.25 2.87-1.534 6.07-1.272 6.07 0.496 0 0.843-0.69 1.798-1.54 2.123-0.85 0.326-1.41 1.388-1.25 2.361s-0.53 2.673-1.53 3.778c-1.18 1.306-1.44 2.239-0.75 2.667 1.59 0.979 1.29 3.54-0.41 3.54-1.06 0-1.33 0.767-0.97 2.75 0.44 2.414-0.07 3.09-4.15 5.54-2.56 1.535-4.39 3.058-4.06 3.386 0.33 0.327 1.72-0.141 3.09-1.041 1.38-0.899 3.19-1.635 4.03-1.635 2.37 0 1.82 2.585-0.93 4.387-1.36 0.889-2.23 2.219-1.95 2.955s-0.19 1.919-1.05 2.629c-1.4 1.164-1.38 1.418 0.17 2.552 1.46 1.066 1.52 1.509 0.39 2.869-0.73 0.884-1.84 1.622-2.46 1.64-0.62 0.017-2.01 0.7-3.1 1.518-1.84 1.392-1.76 1.446 1.25 0.843 2.76-0.552 3.22-0.36 3.22 1.346 0 1.431-1.24 2.463-4.42 3.678-4.89 1.866-7.99 4.583-5.24 4.583 0.88 0 3.17-0.754 5.1-1.675 3.21-1.529 3.67-1.537 5.29-0.091 1.75 1.57 5.42 2.633 8.22 2.385 1-0.088 2.02-2.821 3.21-8.624zm63.84-4.611c0-0.888 2.01-4.634 4.46-8.325 8.4-12.639 10.7-21.148 8.53-31.639-1.41-6.807-4.45-13.237-8.89-18.808-3.45-4.321-3.82-5.612-1.61-5.612 2.26 0 10.27 10.8 12.61 17 3.33 8.824 3.6 18.139 0.76 26.5-4.27 12.549-15.86 27.816-15.86 20.884zm-28.52-4.414c-0.35-0.566 0.69-2.544 2.32-4.395 7.25-8.254 8.1-20.791 2.25-33.281-5-10.676-3.23-14.508 2.18-4.726 6.66 12.06 7.67 26.813 2.43 35.753-3.57 6.096-7.68 9.072-9.18 6.649zm13.52-0.559c0-0.954 1.11-3.624 2.46-5.933 3.98-6.784 7.6-18.895 7.72-25.774 0.11-6.54-1.81-11.732-6.79-18.387-2.77-3.691-2.91-4.317-0.97-4.317 3.06 0 10.38 11.594 11.66 18.479 1.39 7.506-2.41 22.504-8.37 33.013-2.4 4.239-5.71 5.929-5.71 2.919zm-30.56-5.506c-0.37-0.602 0.31-2.429 1.52-4.058 6.57-8.892 8.76-19.783 5.54-27.501-1.92-4.591-1.91-7.346 0.02-7.346 2.49 0 5.48 9.343 5.47 17.071-0.01 5.829-3.06 13.704-7.61 19.672-2.62 3.434-3.83 3.963-4.94 2.162zm-106.43-10.389c-1.47-3.854-1.21-16.05 0.49-23.27 2-8.472 7.7-19.472 12.51-24.139 4.13-4.013 9.84-7.3151 11.2-6.4775 1.53 0.9489 0.76 2.1425-2.2 3.3665-10.47 4.336-19.58 26.051-18.81 44.86 0.21 5.26-0.06 7.566-0.94 7.873-0.69 0.238-1.7-0.757-2.25-2.213zm35.06-0.389c-0.59-1.098-1.07-4.613-1.07-7.811 0-9.473 6.93-21.71 16.67-29.454 7.52-5.972 7.23-2.568-0.42 4.995-3.16 3.126-7.1 8.375-8.75 11.664-2.58 5.136-3 7.095-3 13.895 0 8.144-1.3 10.69-3.43 6.711zm19.14-0.315c-1.75-1.752-1.5-13.591 0.4-19.178 1.76-5.175 7.18-11.634 9.76-11.634 2.2 0 2.05 1.308-0.4 3.529-5.05 4.567-6.45 8.499-6.57 18.424-0.12 9.323-0.81 11.24-3.19 8.859zm-34.31-3.489c-1.51-3.879-0.47-14.449 2.18-22.201 2.5-7.291 8.67-15.374 14.1-18.488 5.74-3.287 5.76-1.049 0.04 3.953-3.5 3.067-6.22 6.683-8.41 11.219-2.96 6.104-3.26 7.619-3.45 17.194-0.17 8.643-0.48 10.557-1.78 10.823-0.97 0.198-2-0.766-2.68-2.5z"/>
      <g id="g4331" transform="translate(261.35 -8.8342)">
        <path id="path3262" stroke="url(#radialGradient4112)" fill="#008000" d="m-137.2 138.24c-5.59 0.07-11.15 0.4-18.53 1-10.16 0.82-19.32 1.95-20.34 2.5-1.85 0.99-2.9 4.1-5.19 15.56-0.66 3.3-2.02 8.55-3.03 11.66-1.01 3.1-2.28 8.27-2.81 11.5-0.53 3.22-2.18 9.63-3.66 14.28-2.92 9.2-2.89 15.56 0.06 17.72 1.26 0.92 14.49 1.11 55.32 0.84 29.51-0.19 56.839-0.52 60.715-0.72 8.165-0.42 12.914-2.67 15.75-7.53 2.521-4.32 8.247-27.8 10.687-43.75 2.309-15.1 2.461-18.63 0.813-20.28-0.871-0.87-8.217-1.22-26.75-1.22-14.053 0-33.995-0.47-44.315-1.03-7.49-0.41-13.12-0.6-18.72-0.53z"/>
        <path id="path3260" stroke="#917c6f" fill="#0f0" d="m-117 141.28l2.78 2c1.83 1.3 3.74 1.78 5.53 1.43 3.83-0.73 3.64 2.11-0.25 3.72-3 1.24-4.06 1.05-7.22-1.22-1.41-1.01-2.13-0.8-4.16 1.1-1.6 1.5-2.68 1.91-3.12 1.18-0.38-0.6 0.92-2.7 2.87-4.65l3.57-3.56z"/>
        <path id="path3258" stroke="#917c6f" fill="#0f0" d="m-148.5 142.56c1.27-0.16 2.62 0.53 4.25 2.06 1.79 1.69 2.58 1.92 3.5 1 1.62-1.63 3.78-1.48 3.78 0.25 0 1.66-4.63 5.56-6.6 5.56-0.73 0-2.05-1.34-2.9-3-1.36-2.61-1.85-2.89-3.63-1.94-2.82 1.51-3.57 0.37-1.37-2.06 1.02-1.13 1.97-1.75 2.97-1.87z"/>
        <path id="path3256" stroke="#917c6f" fill="#0f0" d="m-160.63 142.59c1.91-0.18 2.73 1.52 2.47 5.09l-0.31 4.25-7.66 0.28c-4.59 0.18-7.92-0.12-8.31-0.75-1.63-2.63 4.46-10.44 6.53-8.37 0.7 0.7 0.56 1.43-0.5 2.31-2.83 2.35-1.85 4.03 2.37 4.03 2.17 0 4.23-0.45 4.57-1s-0.31-1-1.44-1c-2.67 0-2.65-2.6 0.03-4.03 0.88-0.47 1.62-0.75 2.25-0.81z"/>
        <path id="path3254" stroke="#917c6f" fill="#0f0" d="m-65.379 148.49c1.794 0.05 4.406 1.28 4.406 2.47 0 1.88-2.049 1.9-4.563 0.07-1.066-0.78-1.604-1.74-1.218-2.13 0.292-0.29 0.777-0.42 1.375-0.41z"/>
        <path id="path3252" stroke="#917c6f" fill="#0f0" d="m-72.504 149.03c0.353 0.01 0.733 0.17 1.125 0.5 0.776 0.64 1.406 1.54 1.406 2.03 0 1.2-2.738 1.1-3.5-0.13-0.811-1.31-0.093-2.46 0.969-2.4z"/>
        <path id="path3250" stroke="#917c6f" fill="#0f0" d="m-97.911 149.46c1.2-0.11 2.938 1.14 2.938 2.44 0 2-2.889 2-3.656 0-0.326-0.85-0.32-1.8 0-2.12 0.189-0.19 0.442-0.29 0.718-0.32z"/>
        <path id="path3248" stroke="#917c6f" fill="#0f0" d="m-82.567 149.56c0.244 0 0.536 0.02 0.844 0.06 1.232 0.18 2.379 1.1 2.562 2.06 0.383 2.01-1.802 2.36-3.593 0.56-1.63-1.62-1.521-2.68 0.187-2.68z"/>
        <path id="path3246" stroke="#917c6f" fill="#0f0" d="m-91.254 150.59c0.305-0.01 0.645-0.01 1.031 0.03 1.653 0.19 2.862 1.01 3.062 2.06 0.369 1.94-1.383 2.25-4.062 0.69-2.322-1.35-2.169-2.7-0.031-2.78z"/>
        <path id="path3244" stroke="#917c6f" fill="#0f0" d="m-176.47 166.43c0.82 0 1.5 0.68 1.5 1.5 0 0.83-0.68 1.5-1.5 1.5-0.83 0-1.5-0.67-1.5-1.5 0-0.82 0.67-1.5 1.5-1.5z"/>
        <path id="path3242" stroke="#917c6f" fill="#0f0" d="m-178.38 173.68c0.5-0.12 1.11 0.05 1.63 0.56 1.06 1.07 0.29 3.19-1.16 3.19-0.46 0-1.1-0.66-1.41-1.47-0.44-1.15 0.12-2.08 0.94-2.28z"/>
        <path id="path3240" stroke="#917c6f" fill="#0f0" d="m-117.57 179.46c1.24-0.04 2.38 0.2 3.22 0.75 1.73 1.14 2.79 12.04 1.35 13.78-1.18 1.43-4.26 1.78-6.72 0.79-2.13-0.86-1.51-3.57 0.65-2.88 3.11 0.99 3.48-1.35 0.41-2.53l-2.81-1.09 2.25-1.82c1.23-1 2.25-2.11 2.25-2.43 0-1.09-5.59-0.61-6.78 0.59-0.66 0.65-1.52 0.83-1.94 0.41-0.42-0.43 0.49-1.86 2.03-3.19 1.71-1.47 4.04-2.3 6.09-2.38z"/>
        <path id="path3238" stroke="#917c6f" fill="#0f0" d="m-139.63 179.53c1.12-0.02 2.19 0.76 3.22 2.34 1.45 2.22 1.44 2.68-0.03 5.53l-1.63 3.13 3.1 1.06c5.96 2.08 2.13 4.18-5.75 3.15-3.98-0.51-4.2-2.4-0.75-6.5 2.7-3.21 2.44-5.29-0.6-4.5-2.29 0.61-2.46-0.62-0.34-2.75 0.97-0.97 1.91-1.45 2.78-1.46z"/>
        <path id="path3236" stroke="#917c6f" fill="#0f0" d="m-180.88 180.56c0.88 0.12 1.91 1.24 1.91 2.43 0 1.92-1.91 1.86-2.66-0.09-0.32-0.85-0.34-1.79-0.03-2.09 0.22-0.22 0.49-0.29 0.78-0.25z"/>
        <path id="path3234" stroke="#917c6f" fill="#0f0" d="m-151.97 180.62c1.56-0.52 0.45 7-1.63 11.06-1.59 3.12-2.2 3.39-3 1.31-0.72-1.87 3.01-11.83 4.63-12.37z"/>
        <path id="path3232" stroke="#917c6f" fill="#0f0" d="m-77.036 181.43c4.129 0 4.01 2.49-0.187 3.97-3.033 1.07-3.117 1.22-1.25 2.22 4.689 2.52 5.598 5.71 2.5 8.81-1.972 1.97-9.787 2.9-11.344 1.35-1.534-1.54-0.426-2.35 3.219-2.35 3.692 0 6.873-1.94 5.469-3.34-0.362-0.36-2.137-0.66-3.938-0.66-4.163 0-4.879-1.18-2.937-4.94 1.853-3.58 4.325-5.06 8.468-5.06z"/>
        <path id="path3230" stroke="#917c6f" fill="#0f0" d="m-102.82 183.43c0.36 0 0.42 1.8 0.13 4-0.51 3.8 0.7 5.45 2.22 3 0.744-1.21 5.419 1.95 5.466 3.69 0.017 0.65-0.863 1.46-1.969 1.81s-2.698 1.95-3.527 3.56c-1.72 3.32-2.28 3.59-3.1 1.44-0.31-0.82-0.32-2.19 0-3.03 0.39-1.02-0.22-1.84-1.87-2.47-1.37-0.52-2.5-1.52-2.5-2.22-0.01-1.63 4.29-9.78 5.15-9.78z"/>
        <path id="path3228" stroke="#917c6f" fill="#0f0" d="m-182.47 186.43c0.82 0 1.5 0.68 1.5 1.5 0 1.56-1.2 2-2.35 0.85s-0.71-2.35 0.85-2.35z"/>
        <path id="path3226" stroke="#917c6f" fill="#0f0" d="m-184.25 192.62c1.03-0.03 3.28 1.83 3.28 2.94 0 1.51-3.04 0.96-3.66-0.66-0.32-0.85-0.33-1.83 0-2.16 0.09-0.08 0.23-0.12 0.38-0.12z"/>
        <path id="path3224" stroke="#917c6f" fill="#0f0" d="m-184.69 199.49c1.14 0.07 2.72 1.01 2.72 1.91 0 1.36-2.69 1.34-3.53-0.03-0.37-0.59-0.4-1.32-0.1-1.63 0.21-0.2 0.53-0.27 0.91-0.25z"/>
      </g>
      <path id="path3142" stroke="#917c6f" fill="#f00" d="m137.93 411.97c3.84 0 8.33 0.67 10.47 1.56l3.71 1.56-0.4 6.41c-0.56 8.73-3.03 11.52-10.22 11.4-2.79-0.04-7.57-0.62-10.59-1.28-8.89-1.93-9.13-2.35-6.38-10.75 2.31-7.07 5.1-8.9 13.41-8.9z"/>
      <path id="path3140" stroke="#917c6f" fill="#f00" d="m140.3 416c-4.19 0.04-9.4 0.95-9.4 2.22 0 0.54 0.72 0.7 1.59 0.37s4.27-0.62 7.56-0.62c3.73 0 5.73-0.38 5.35-1-0.45-0.72-2.58-1-5.1-0.97z"/>
      <path id="path3138" stroke="#917c6f" fill="#f00" d="m138.4 426.12c-3.74 0.09-5.06 1.28-1.75 2.19 2.89 0.79 8.75 0.23 8.75-0.84 0-0.55-2.37-1.12-5.25-1.29-0.63-0.03-1.22-0.07-1.75-0.06z"/>
    </g>
  </g>
  <metadata>
    <rdf:RDF>
      <cc:Work>
        <dc:format>image/svg+xml</dc:format>
        <dc:type rdf:resource="http://purl.org/dc/dcmitype/StillImage"/>
        <cc:license rdf:resource="http://creativecommons.org/licenses/publicdomain/"/>
        <dc:publisher>
          <cc:Agent rdf:about="http://openclipart.org/">
            <dc:title>Openclipart</dc:title>
          </cc:Agent>
        </dc:publisher>
        <dc:title>Analogue mobile phone</dc:title>
        <dc:date>2008-08-10T09:31:45</dc:date>
        <dc:description>Hand drawn sketch of a old model, analogue mobile phone. Scanned and converted to SVG and colourised with some new layers.</dc:description>
        <dc:source>http://openclipart.org/detail/18362/analogue-mobile-phone-by-rgesthuizen</dc:source>
        <dc:creator>
          <cc:Agent>
            <dc:title>rgesthuizen</dc:title>
          </cc:Agent>
        </dc:creator>
        <dc:subject>
          <rdf:Bag>
            <rdf:li>clip art</rdf:li>
            <rdf:li>clipart</rdf:li>
            <rdf:li>colour</rdf:li>
            <rdf:li>communication</rdf:li>
            <rdf:li>electronics</rdf:li>
            <rdf:li>image</rdf:li>
            <rdf:li>media</rdf:li>
            <rdf:li>mobile phone</rdf:li>
            <rdf:li>phone</rdf:li>
            <rdf:li>png</rdf:li>
            <rdf:li>public domain</rdf:li>
            <rdf:li>svg</rdf:li>
          </rdf:Bag>
        </dc:subject>
      </cc:Work>
      <cc:License rdf:about="http://creativecommons.org/licenses/publicdomain/">
        <cc:permits rdf:resource="http://creativecommons.org/ns#Reproduction"/>
        <cc:permits rdf:resource="http://creativecommons.org/ns#Distribution"/>
        <cc:permits rdf:resource="http://creativecommons.org/ns#DerivativeWorks"/>
      </cc:License>
    </rdf:RDF>
  </metadata>
</svg>
